<?xml version="1.0" standalone="no"?>
<!DOCTYPE svg PUBLIC "-//W3C//DTD SVG 20010904//EN"
 "http://www.w3.org/TR/2001/REC-SVG-20010904/DTD/svg10.dtd">
<svg version="1.0" xmlns="http://www.w3.org/2000/svg"
 width="1042.000000pt" height="1042.000000pt" viewBox="0 0 1042.000000 1042.000000"
 preserveAspectRatio="xMidYMid meet">
<metadata>
Created by potrace 1.11, written by Peter Selinger 2001-2013
</metadata>
<g transform="translate(0.000000,1042.000000) scale(0.100000,-0.100000)"
fill="#000000" stroke="none">
<path d="M5220 9120 c0 -5 -11 -10 -25 -10 -16 0 -25 -6 -25 -15 0 -11 -12
-15 -50 -15 -38 0 -50 4 -50 15 0 12 -17 15 -90 15 -73 0 -90 -3 -90 -15 0 -8
7 -15 15 -15 8 0 15 -4 15 -10 0 -5 23 -10 50 -10 28 0 50 5 50 10 0 6 11 10
25 10 20 0 25 -5 25 -25 0 -20 5 -25 25 -25 20 0 25 -5 25 -25 0 -20 5 -25 25
-25 16 0 25 6 25 15 0 8 5 15 10 15 6 0 10 -11 10 -25 0 -24 -3 -25 -60 -25
-33 0 -60 4 -60 10 0 6 -28 10 -65 10 -40 0 -65 4 -65 11 0 23 -30 39 -74 39
-25 0 -46 -4 -46 -10 0 -5 -22 -10 -50 -10 l-50 0 0 35 c0 31 -3 35 -25 35
-14 0 -25 -4 -25 -10 0 -5 -11 -10 -25 -10 -14 0 -25 5 -25 10 0 6 -22 10 -50
10 -27 0 -50 -4 -50 -10 0 -5 -22 -10 -50 -10 -47 0 -50 2 -50 25 0 20 -5 25
-25 25 -20 0 -25 -5 -25 -25 0 -22 -4 -25 -40 -25 -29 0 -40 -4 -40 -15 0 -8
-4 -15 -10 -15 -5 0 -10 7 -10 15 0 9 -9 15 -25 15 -20 0 -25 -5 -25 -25 0
-22 4 -25 35 -25 19 0 35 5 35 10 0 6 11 10 25 10 20 0 25 -5 25 -25 0 -24 -2
-25 -75 -25 -60 0 -75 3 -75 15 0 11 -12 15 -50 15 -27 0 -50 5 -50 10 0 6
-11 10 -25 10 -14 0 -25 -4 -25 -10 0 -5 -16 -10 -35 -10 -24 0 -35 -5 -35
-15 0 -9 -9 -15 -25 -15 -14 0 -25 -4 -25 -10 0 -5 -18 -10 -40 -10 -29 0 -40
-4 -40 -15 0 -9 -9 -15 -25 -15 -14 0 -25 -4 -25 -10 0 -5 -16 -10 -35 -10
-24 0 -35 -5 -35 -15 0 -9 -9 -15 -25 -15 -14 0 -25 -4 -25 -10 0 -5 -11 -10
-25 -10 -16 0 -25 -6 -25 -15 0 -9 -9 -15 -25 -15 -14 0 -25 -4 -25 -10 0 -5
-11 -10 -25 -10 -16 0 -25 -6 -25 -15 0 -9 -9 -15 -25 -15 -14 0 -25 -4 -25
-10 0 -5 -11 -10 -25 -10 -16 0 -25 -6 -25 -15 0 -9 -9 -15 -25 -15 -14 0 -25
-4 -25 -10 0 -5 -7 -10 -15 -10 -8 0 -15 -7 -15 -15 0 -9 -9 -15 -25 -15 -14
0 -25 -4 -25 -10 0 -5 -11 -10 -25 -10 -14 0 -25 -5 -25 -11 0 -17 -27 -39
-49 -39 -12 0 -21 -6 -21 -15 0 -8 -7 -15 -15 -15 -8 0 -15 -4 -15 -10 0 -5
-11 -10 -25 -10 -14 0 -25 -5 -25 -11 0 -17 -27 -39 -49 -39 -12 0 -21 -6 -21
-15 0 -8 -5 -15 -11 -15 -14 0 -39 -25 -39 -39 0 -6 -11 -11 -25 -11 -14 0
-25 -4 -25 -10 0 -5 -7 -10 -15 -10 -8 0 -15 -5 -15 -11 0 -14 -25 -39 -39
-39 -6 0 -11 -7 -11 -15 0 -9 -9 -15 -21 -15 -22 0 -49 -22 -49 -39 0 -6 -5
-11 -11 -11 -14 0 -39 -25 -39 -39 0 -6 -5 -11 -11 -11 -14 0 -39 -25 -39 -39
0 -6 -5 -11 -11 -11 -14 0 -39 -25 -39 -39 0 -6 -5 -11 -11 -11 -14 0 -39 -25
-39 -39 0 -6 -5 -11 -11 -11 -14 0 -39 -25 -39 -39 0 -6 -5 -11 -11 -11 -14 0
-39 -25 -39 -39 0 -6 -5 -11 -11 -11 -14 0 -39 -25 -39 -39 0 -6 -5 -11 -11
-11 -14 0 -39 -25 -39 -39 0 -6 -7 -11 -15 -11 -10 0 -15 -11 -15 -35 0 -19
-4 -35 -10 -35 -5 0 -10 -11 -10 -25 0 -16 -6 -25 -15 -25 -8 0 -15 -7 -15
-15 0 -8 -4 -15 -10 -15 -5 0 -10 7 -10 15 0 8 -7 15 -15 15 -8 0 -15 -5 -15
-11 0 -14 -25 -39 -39 -39 -6 0 -11 -11 -11 -25 0 -14 -4 -25 -10 -25 -5 0
-10 -7 -10 -15 0 -8 -7 -15 -15 -15 -9 0 -15 -9 -15 -21 0 -22 -22 -49 -39
-49 -6 0 -11 -7 -11 -15 0 -8 -4 -15 -10 -15 -5 0 -10 -16 -10 -35 0 -19 5
-35 10 -35 6 0 10 -7 10 -15 0 -10 -11 -15 -35 -15 -31 0 -35 -3 -35 -25 0
-14 -5 -25 -11 -25 -14 0 -39 -25 -39 -39 0 -6 -7 -11 -15 -11 -11 0 -15 -12
-15 -50 0 -47 2 -50 25 -50 16 0 25 6 25 15 0 9 9 15 25 15 20 0 25 5 25 25 0
16 6 25 15 25 9 0 15 9 15 21 0 31 24 49 64 49 l36 0 0 -85 c0 -69 -3 -85 -15
-85 -9 0 -15 -9 -15 -25 0 -16 6 -25 15 -25 11 0 15 -11 15 -40 0 -39 1 -40
35 -40 19 0 35 -4 35 -10 0 -5 7 -10 15 -10 8 0 15 -7 15 -15 0 -9 -9 -15 -25
-15 -14 0 -25 -4 -25 -10 0 -5 -11 -10 -25 -10 -16 0 -25 -6 -25 -15 0 -11
-11 -15 -40 -15 -22 0 -40 5 -40 11 0 14 -25 39 -39 39 -6 0 -11 5 -11 11 0
14 -25 39 -39 39 -6 0 -11 21 -11 50 0 47 -2 50 -25 50 -19 0 -25 -5 -25 -21
0 -26 -23 -49 -49 -49 -16 0 -21 -6 -21 -25 0 -14 5 -25 10 -25 6 0 10 -5 10
-11 0 -14 -25 -39 -39 -39 -6 0 -11 -7 -11 -15 0 -8 -4 -15 -10 -15 -5 0 -10
11 -10 25 0 14 5 25 10 25 6 0 10 7 10 15 0 8 -4 15 -10 15 -5 0 -10 -7 -10
-15 0 -8 -7 -15 -15 -15 -9 0 -15 -9 -15 -25 0 -14 -4 -25 -10 -25 -5 0 -10
-11 -10 -25 0 -16 -6 -25 -15 -25 -9 0 -15 -9 -15 -25 0 -14 -4 -25 -10 -25
-5 0 -10 -11 -10 -25 0 -16 -6 -25 -15 -25 -10 0 -15 -11 -15 -35 0 -19 -4
-35 -10 -35 -5 0 -10 -18 -10 -40 0 -29 -4 -40 -15 -40 -9 0 -15 -9 -15 -25 0
-14 -4 -25 -10 -25 -5 0 -10 -16 -10 -35 0 -24 -5 -35 -15 -35 -11 0 -15 -11
-15 -40 0 -36 3 -40 25 -40 16 0 25 6 25 15 0 8 7 15 15 15 8 0 15 -7 15 -15
0 -8 5 -15 10 -15 6 0 10 -35 10 -85 0 -50 -4 -85 -10 -85 -5 0 -10 -7 -10
-15 0 -8 -7 -15 -15 -15 -8 0 -15 -4 -15 -10 0 -5 -16 -10 -35 -10 -24 0 -35
-5 -35 -15 0 -8 5 -15 10 -15 6 0 10 -11 10 -25 0 -22 4 -25 40 -25 36 0 40
-2 40 -25 0 -24 -2 -25 -65 -25 -37 0 -65 -4 -65 -10 0 -5 23 -10 50 -10 l50
0 0 -50 c0 -38 4 -50 15 -50 9 0 15 -9 15 -25 0 -20 -5 -25 -25 -25 -14 0 -25
5 -25 10 0 6 -18 10 -40 10 l-40 0 0 -75 c0 -60 3 -75 15 -75 8 0 15 -4 15
-10 0 -5 11 -10 25 -10 20 0 25 -5 25 -25 0 -16 -6 -25 -15 -25 -9 0 -15 -9
-15 -25 0 -23 -3 -25 -50 -25 -27 0 -50 5 -50 10 0 6 -4 10 -10 10 -5 0 -10
-9 -10 -21 0 -22 22 -49 39 -49 6 0 11 -18 11 -40 0 -29 -4 -40 -15 -40 -8 0
-15 -4 -15 -10 0 -5 7 -10 15 -10 8 0 15 -7 15 -15 0 -9 9 -15 21 -15 26 0 49
-23 49 -49 0 -12 6 -21 15 -21 9 0 15 -9 15 -25 0 -16 -6 -25 -15 -25 -8 0
-15 -7 -15 -15 0 -8 -4 -15 -10 -15 -5 0 -10 -4 -10 -10 0 -5 11 -10 25 -10
24 0 25 -2 25 -65 l0 -65 35 0 c29 0 35 -4 35 -21 0 -22 -22 -49 -39 -49 -6 0
-11 5 -11 10 0 6 -16 10 -35 10 l-35 0 0 50 c0 38 -4 50 -15 50 -8 0 -15 7
-15 15 0 8 -4 15 -10 15 -5 0 -10 -7 -10 -15 0 -8 -5 -15 -11 -15 -6 0 -17 -6
-25 -14 -20 -21 -17 -36 7 -36 22 0 49 -22 49 -39 0 -6 7 -11 15 -11 10 0 15
-11 15 -35 0 -24 -5 -35 -15 -35 -8 0 -15 -7 -15 -15 0 -8 7 -15 15 -15 10 0
15 -11 15 -35 0 -33 2 -35 35 -35 l35 0 0 -90 0 -90 -60 0 c-33 0 -60 -4 -60
-10 0 -5 5 -10 10 -10 6 0 10 -7 10 -15 0 -8 7 -15 15 -15 8 0 15 -4 15 -10 0
-14 47 -12 54 3 5 10 7 10 12 0 3 -7 12 -13 20 -13 8 0 14 -7 14 -15 0 -8 -7
-15 -15 -15 -8 0 -15 -9 -15 -20 0 -11 -4 -20 -10 -20 -5 0 -10 -7 -10 -15 0
-9 -9 -15 -25 -15 -16 0 -25 6 -25 15 0 11 -11 15 -40 15 -29 0 -40 -4 -40
-15 0 -9 9 -15 25 -15 14 0 25 -4 25 -10 0 -5 -11 -10 -25 -10 -22 0 -25 -4
-25 -40 0 -36 3 -40 25 -40 16 0 25 6 25 15 0 8 5 15 11 15 6 0 17 6 25 14 8
8 14 19 14 25 0 6 7 11 15 11 8 0 15 -7 15 -15 0 -8 5 -15 10 -15 6 0 10 -11
10 -25 0 -16 6 -25 15 -25 9 0 15 -9 15 -25 0 -16 -6 -25 -15 -25 -8 0 -15 -4
-15 -10 0 -5 7 -10 15 -10 11 0 15 -11 15 -40 0 -29 -4 -40 -15 -40 -8 0 -15
-4 -15 -10 0 -5 7 -10 15 -10 8 0 15 -5 15 -11 0 -6 6 -17 14 -25 8 -8 19 -14
25 -14 6 0 11 -21 11 -50 0 -38 -4 -50 -15 -50 -8 0 -15 -7 -15 -15 0 -10 -11
-15 -35 -15 -24 0 -35 5 -35 15 0 8 -7 15 -15 15 -11 0 -15 -11 -15 -40 0 -29
4 -40 15 -40 9 0 15 -9 15 -25 0 -23 3 -25 50 -25 28 0 50 -4 50 -10 0 -5 -7
-10 -15 -10 -9 0 -15 -9 -15 -25 0 -14 -4 -25 -10 -25 -5 0 -10 -18 -10 -40 0
-22 5 -40 10 -40 6 0 10 -11 10 -25 0 -16 6 -25 15 -25 10 0 15 -11 15 -35 0
-19 5 -35 10 -35 6 0 10 -11 10 -25 0 -16 6 -25 15 -25 9 0 15 -9 15 -25 0
-14 5 -25 10 -25 6 0 10 -11 10 -25 0 -16 6 -25 15 -25 9 0 15 -9 15 -25 0
-14 5 -25 10 -25 6 0 10 5 10 10 0 6 7 10 15 10 8 0 15 5 15 11 0 6 6 17 14
25 8 8 19 14 25 14 6 0 11 5 11 11 0 6 6 17 14 25 8 8 19 14 25 14 6 0 11 5
11 11 0 6 6 17 14 25 8 8 19 14 25 14 6 0 11 7 11 15 0 10 11 15 35 15 24 0
35 -5 35 -15 0 -11 11 -15 40 -15 39 0 40 -1 40 -35 0 -24 -5 -35 -15 -35 -8
0 -15 -7 -15 -15 0 -8 7 -15 15 -15 10 0 15 -11 15 -35 0 -24 -5 -35 -15 -35
-8 0 -15 -5 -15 -11 0 -14 -25 -39 -39 -39 -6 0 -11 -7 -11 -15 0 -12 13 -15
61 -15 39 0 65 -5 75 -14 20 -21 17 -36 -7 -36 -22 0 -49 -22 -49 -39 0 -6 -7
-11 -15 -11 -8 0 -15 7 -15 15 0 8 -4 15 -10 15 -5 0 -10 -7 -10 -15 0 -9 -9
-15 -25 -15 -14 0 -25 -4 -25 -10 0 -5 16 -10 35 -10 24 0 35 -5 35 -15 0 -9
9 -15 25 -15 14 0 25 -4 25 -10 0 -5 -11 -10 -25 -10 -20 0 -25 -5 -25 -25 0
-14 -4 -25 -10 -25 -5 0 -10 -18 -10 -40 0 -29 -4 -40 -15 -40 -9 0 -15 -9
-15 -25 0 -16 6 -25 15 -25 10 0 15 -11 15 -35 0 -31 3 -35 25 -35 15 0 25 -6
25 -14 0 -8 6 -17 13 -20 10 -5 10 -7 0 -12 -7 -3 -13 -10 -13 -16 0 -13 26
-38 39 -38 6 0 11 -11 11 -25 0 -14 5 -25 10 -25 6 0 10 -7 10 -15 0 -8 5 -15
11 -15 14 0 39 -25 39 -39 0 -6 5 -11 11 -11 17 0 39 -27 39 -49 0 -12 6 -21
15 -21 8 0 15 -5 15 -11 0 -14 25 -39 39 -39 6 0 11 -5 11 -11 0 -14 25 -39
39 -39 6 0 11 -5 11 -11 0 -14 25 -39 39 -39 6 0 11 -5 11 -11 0 -14 25 -39
39 -39 6 0 11 -5 11 -11 0 -14 25 -39 39 -39 6 0 11 -5 11 -11 0 -14 25 -39
39 -39 6 0 11 -5 11 -11 0 -14 25 -39 39 -39 6 0 11 -5 11 -11 0 -14 25 -39
39 -39 6 0 11 -7 11 -15 0 -9 9 -15 21 -15 22 0 49 -22 49 -39 0 -6 7 -11 15
-11 8 0 15 -4 15 -10 0 -5 5 -10 10 -10 7 0 10 643 10 1910 0 1267 -3 1910
-10 1910 -5 0 -10 -7 -10 -15 0 -11 -11 -15 -40 -15 -29 0 -40 4 -40 15 0 9
-9 15 -25 15 -14 0 -25 5 -25 10 0 6 7 10 15 10 11 0 15 11 15 40 l0 40 60 0
60 0 0 100 0 100 -400 0 c-260 0 -400 4 -400 10 0 6 53 10 140 10 118 0 140 2
140 15 0 13 36 15 260 15 l260 0 0 150 c0 127 2 150 15 150 11 0 15 -12 15
-50 0 -27 5 -50 10 -50 6 0 10 -40 10 -100 l0 -100 165 0 165 0 0 750 c0 493
3 750 10 750 6 0 10 43 10 110 0 91 3 110 15 110 13 0 15 -102 15 -860 l0
-860 110 0 110 0 0 35 c0 24 5 35 15 35 9 0 15 9 15 25 0 14 5 25 10 25 6 0
10 5 10 11 0 14 -25 39 -39 39 -6 0 -11 11 -11 25 0 14 -4 25 -10 25 -5 0 -10
7 -10 15 0 11 -11 15 -40 15 -36 0 -40 3 -40 25 0 16 6 25 15 25 8 0 15 5 15
10 0 6 35 10 85 10 l85 0 0 -35 c0 -31 3 -35 25 -35 14 0 25 5 25 10 0 6 7 10
15 10 8 0 15 5 15 11 0 17 27 39 49 39 12 0 21 6 21 15 0 11 12 15 50 15 28 0
50 5 50 10 0 6 37 10 90 10 53 0 90 -4 90 -10 0 -6 27 -10 60 -10 47 0 60 -3
60 -15 0 -11 12 -15 50 -15 28 0 50 -4 50 -10 0 -5 18 -10 40 -10 29 0 40 -4
40 -15 0 -10 11 -15 35 -15 19 0 35 -4 35 -10 0 -5 11 -10 25 -10 16 0 25 -6
25 -15 0 -11 11 -15 40 -15 22 0 40 -4 40 -10 0 -5 11 -10 25 -10 16 0 25 -6
25 -15 0 -9 9 -15 25 -15 14 0 25 -4 25 -10 0 -5 11 -10 25 -10 14 0 25 -5 25
-11 0 -17 27 -39 49 -39 12 0 21 -6 21 -15 0 -9 9 -15 25 -15 14 0 25 -4 25
-10 0 -5 11 -10 25 -10 16 0 25 -6 25 -15 0 -11 11 -15 40 -15 22 0 40 -4 40
-10 0 -5 11 -10 25 -10 16 0 25 -6 25 -15 0 -9 9 -15 25 -15 14 0 25 -4 25
-10 0 -5 11 -10 25 -10 16 0 25 -6 25 -15 0 -9 9 -15 25 -15 14 0 25 -4 25
-10 0 -5 11 -10 25 -10 16 0 25 -6 25 -15 0 -9 9 -15 25 -15 14 0 25 -4 25
-10 0 -5 11 -10 25 -10 14 0 25 -5 25 -11 0 -17 27 -39 49 -39 12 0 21 -6 21
-15 0 -8 7 -15 15 -15 8 0 15 -4 15 -10 0 -7 210 -10 610 -10 536 0 610 -2
610 -15 0 -13 -28 -15 -189 -15 -142 0 -191 -3 -195 -12 -5 -10 -7 -10 -12 0
-7 15 -134 17 -134 2 0 -6 -110 -10 -310 -10 -269 0 -310 -2 -310 -15 0 -8 7
-15 15 -15 9 0 15 -9 15 -25 0 -14 5 -25 10 -25 6 0 10 -11 10 -25 0 -16 6
-25 15 -25 12 0 15 -13 15 -60 0 -33 4 -60 10 -60 6 0 10 -11 10 -25 0 -14 -4
-25 -10 -25 -6 0 -10 -32 -10 -75 0 -60 -3 -75 -15 -75 -9 0 -15 -9 -15 -25 0
-14 -4 -25 -10 -25 -5 0 -10 -18 -10 -40 0 -29 -4 -40 -15 -40 -9 0 -15 -9
-15 -25 0 -14 -4 -25 -10 -25 -5 0 -10 -11 -10 -25 0 -14 -5 -25 -11 -25 -17
0 -39 -27 -39 -49 0 -12 -6 -21 -15 -21 -9 0 -15 -9 -15 -25 0 -14 -4 -25 -10
-25 -5 0 -10 -7 -10 -15 0 -8 -7 -15 -15 -15 -9 0 -15 -9 -15 -25 0 -14 -4
-25 -10 -25 -5 0 -10 -11 -10 -25 0 -14 -5 -25 -11 -25 -17 0 -39 -27 -39 -49
0 -12 -6 -21 -15 -21 -8 0 -15 -5 -15 -11 0 -14 -25 -39 -39 -39 -6 0 -11 -11
-11 -25 0 -14 -4 -25 -10 -25 -5 0 -10 -7 -10 -15 0 -8 -5 -15 -11 -15 -14 0
-39 -25 -39 -39 0 -6 -7 -11 -15 -11 -9 0 -15 -9 -15 -21 0 -22 -22 -49 -39
-49 -6 0 -11 -5 -11 -11 0 -14 -25 -39 -39 -39 -6 0 -11 -11 -11 -25 0 -14 -4
-25 -10 -25 -5 0 -10 -7 -10 -15 0 -8 -5 -15 -11 -15 -17 0 -39 -27 -39 -49 0
-12 -6 -21 -15 -21 -8 0 -15 -5 -15 -11 0 -11 -25 -39 -35 -39 -14 0 -35 -30
-35 -49 0 -12 -6 -21 -15 -21 -8 0 -15 -5 -15 -11 0 -14 -25 -39 -39 -39 -6 0
-11 -11 -11 -25 0 -14 -4 -25 -10 -25 -5 0 -10 -7 -10 -15 0 -8 -5 -15 -11
-15 -17 0 -39 -27 -39 -49 0 -12 -6 -21 -15 -21 -9 0 -15 -9 -15 -25 0 -14 -4
-25 -10 -25 -5 0 -10 -7 -10 -15 0 -8 -5 -15 -11 -15 -17 0 -39 -27 -39 -49 0
-12 -6 -21 -15 -21 -8 0 -15 -7 -15 -15 0 -8 -4 -15 -10 -15 -5 0 -10 -11 -10
-25 0 -14 -5 -25 -11 -25 -17 0 -39 -27 -39 -49 0 -12 -6 -21 -15 -21 -8 0
-15 -5 -15 -11 0 -14 -25 -39 -39 -39 -6 0 -11 -11 -11 -25 0 -14 -4 -25 -10
-25 -5 0 -10 -7 -10 -15 0 -8 -7 -15 -15 -15 -9 0 -15 -9 -15 -21 0 -22 -22
-49 -39 -49 -6 0 -11 -7 -11 -15 0 -8 -4 -15 -10 -15 -5 0 -10 -11 -10 -25 0
-14 -5 -25 -11 -25 -17 0 -39 -27 -39 -49 0 -12 -6 -21 -15 -21 -8 0 -15 -7
-15 -15 0 -8 -4 -15 -10 -15 -5 0 -10 -11 -10 -25 0 -14 -5 -25 -11 -25 -14 0
-39 -25 -39 -39 0 -6 -7 -11 -15 -11 -9 0 -15 -9 -15 -21 0 -22 -22 -49 -39
-49 -6 0 -11 -7 -11 -15 0 -8 -4 -15 -10 -15 -5 0 -10 -11 -10 -25 0 -14 -5
-25 -11 -25 -14 0 -39 -25 -39 -39 0 -6 -7 -11 -15 -11 -9 0 -15 -9 -15 -21 0
-22 -22 -49 -39 -49 -6 0 -11 -7 -11 -15 0 -8 -4 -15 -10 -15 -5 0 -10 -11
-10 -25 0 -14 -5 -25 -11 -25 -14 0 -39 -25 -39 -39 0 -6 -5 -11 -11 -11 -17
0 -39 -27 -39 -49 0 -12 -6 -21 -15 -21 -8 0 -15 -5 -15 -11 0 -14 -25 -39
-39 -39 -6 0 -11 -5 -11 -11 0 -14 -25 -39 -39 -39 -6 0 -11 -5 -11 -11 0 -14
-25 -39 -39 -39 -6 0 -11 -11 -11 -25 0 -14 -4 -25 -10 -25 -5 0 -10 -7 -10
-15 0 -8 -5 -15 -11 -15 -14 0 -39 -25 -39 -39 0 -6 -7 -11 -15 -11 -8 0 -15
-4 -15 -10 0 -5 -11 -10 -25 -10 -14 0 -25 -5 -25 -11 0 -14 -25 -39 -39 -39
-8 0 -11 -129 -11 -425 0 -371 2 -425 15 -425 8 0 15 -7 15 -15 0 -9 9 -15 25
-15 14 0 25 -4 25 -10 0 -5 11 -10 25 -10 16 0 25 -6 25 -15 0 -9 9 -15 25
-15 14 0 25 -4 25 -10 0 -5 11 -10 25 -10 16 0 25 -6 25 -15 0 -9 9 -15 25
-15 14 0 25 -4 25 -10 0 -5 16 -10 35 -10 24 0 35 -5 35 -15 0 -9 9 -15 25
-15 14 0 25 -4 25 -10 0 -5 11 -10 25 -10 16 0 25 -6 25 -15 0 -11 11 -15 40
-15 22 0 40 -4 40 -10 0 -5 11 -10 25 -10 16 0 25 -6 25 -15 0 -10 11 -15 35
-15 19 0 35 -4 35 -10 0 -5 18 -10 40 -10 29 0 40 -4 40 -15 0 -11 12 -15 50
-15 28 0 50 -4 50 -10 0 -5 16 -10 35 -10 24 0 35 -5 35 -15 0 -11 12 -15 50
-15 28 0 50 -4 50 -10 0 -6 28 -10 65 -10 51 0 65 -3 65 -15 0 -12 13 -15 60
-15 33 0 60 -4 60 -10 0 -6 37 -10 90 -10 73 0 90 -3 90 -15 0 -13 24 -15 160
-15 100 0 160 -4 160 -10 0 -6 53 -10 140 -10 87 0 140 4 140 10 0 6 60 10
160 10 136 0 160 2 160 15 0 12 16 15 85 15 50 0 85 4 85 10 0 6 28 10 65 10
51 0 65 3 65 15 0 12 13 15 60 15 33 0 60 4 60 10 0 6 23 10 50 10 38 0 50 4
50 15 0 11 12 15 50 15 28 0 50 5 50 10 0 6 18 10 40 10 29 0 40 4 40 15 0 10
11 15 35 15 19 0 35 5 35 10 0 6 18 10 40 10 29 0 40 4 40 15 0 10 11 15 35
15 19 0 35 5 35 10 0 6 11 10 25 10 16 0 25 6 25 15 0 9 9 15 25 15 14 0 25 5
25 10 0 6 18 10 40 10 29 0 40 4 40 15 0 9 9 15 25 15 14 0 25 5 25 10 0 6 11
10 25 10 16 0 25 6 25 15 0 9 9 15 25 15 14 0 25 5 25 10 0 6 11 10 25 10 16
0 25 6 25 15 0 9 9 15 25 15 14 0 25 5 25 10 0 6 11 10 25 10 16 0 25 6 25 15
0 9 9 15 21 15 22 0 49 22 49 39 0 6 11 11 25 11 14 0 25 5 25 10 0 6 11 10
25 10 16 0 25 6 25 15 0 8 7 15 15 15 8 0 15 5 15 10 0 6 11 10 25 10 14 0 25
5 25 11 0 17 27 39 49 39 12 0 21 6 21 15 0 8 7 15 15 15 8 0 15 5 15 10 0 6
11 10 25 10 14 0 25 5 25 11 0 17 27 39 49 39 12 0 21 6 21 15 0 8 5 15 11 15
14 0 39 25 39 39 0 6 7 11 15 11 8 0 15 5 15 10 0 6 11 10 25 10 14 0 25 5 25
11 0 14 25 39 39 39 6 0 11 5 11 11 0 14 25 39 39 39 6 0 11 5 11 11 0 14 25
39 39 39 6 0 11 7 11 15 0 9 9 15 21 15 22 0 49 22 49 39 0 6 5 11 11 11 14 0
39 25 39 39 0 6 5 11 11 11 14 0 39 25 39 39 0 6 5 11 11 11 17 0 39 27 39 49
0 12 6 21 15 21 8 0 15 5 15 11 0 14 25 39 39 39 6 0 11 5 11 11 0 14 25 39
39 39 6 0 11 5 11 11 0 14 25 39 39 39 6 0 11 11 11 25 0 14 5 25 10 25 6 0
10 7 10 15 0 8 5 15 11 15 17 0 39 27 39 49 0 12 6 21 15 21 8 0 15 5 15 11 0
14 25 39 39 39 6 0 11 11 11 25 0 14 5 25 10 25 6 0 10 7 10 15 0 8 7 15 15
15 9 0 15 9 15 21 0 22 22 49 39 49 6 0 11 11 11 25 0 14 5 25 10 25 6 0 10 7
10 15 0 8 7 15 15 15 9 0 15 9 15 25 0 14 5 25 10 25 6 0 10 11 10 25 0 14 5
25 11 25 17 0 39 27 39 49 0 12 6 21 15 21 9 0 15 9 15 25 0 14 5 25 10 25 6
0 10 11 10 25 0 16 6 25 15 25 9 0 15 9 15 25 0 14 5 25 10 25 6 0 10 11 10
25 0 16 6 25 15 25 9 0 15 9 15 25 0 14 5 25 10 25 6 0 10 18 10 40 0 29 4 40
15 40 9 0 15 9 15 25 0 14 5 25 10 25 6 0 10 11 10 25 0 16 6 25 15 25 10 0
15 11 15 35 0 19 5 35 10 35 6 0 10 18 10 40 0 29 4 40 15 40 10 0 15 11 15
35 0 19 5 35 10 35 6 0 10 18 10 40 0 29 4 40 15 40 10 0 15 11 15 35 0 19 5
35 10 35 6 0 10 23 10 50 0 38 4 50 15 50 11 0 15 12 15 50 0 28 5 50 10 50 6
0 10 28 10 65 0 51 3 65 15 65 12 0 15 14 15 70 0 40 4 70 10 70 6 0 10 37 10
90 0 73 3 90 15 90 13 0 15 49 15 385 0 336 -2 385 -15 385 -12 0 -15 18 -15
100 0 60 -4 100 -10 100 -6 0 -10 32 -10 75 0 60 -3 75 -15 75 -12 0 -15 14
-15 65 0 37 -4 65 -10 65 -5 0 -10 23 -10 50 0 38 -4 50 -15 50 -11 0 -15 12
-15 50 0 28 -4 50 -10 50 -5 0 -10 16 -10 35 0 24 -5 35 -15 35 -11 0 -15 11
-15 40 0 22 -4 40 -10 40 -5 0 -10 16 -10 35 0 24 -5 35 -15 35 -11 0 -15 11
-15 40 0 22 -4 40 -10 40 -5 0 -10 16 -10 35 0 24 -5 35 -15 35 -9 0 -15 9
-15 25 0 14 -4 25 -10 25 -5 0 -10 11 -10 25 0 16 -6 25 -15 25 -9 0 -15 9
-15 25 0 14 -4 25 -10 25 -5 0 -10 11 -10 25 0 16 -6 25 -15 25 -11 0 -15 11
-15 40 0 22 -4 40 -10 40 -5 0 -10 11 -10 25 0 16 -6 25 -15 25 -9 0 -15 9
-15 21 0 22 -22 49 -39 49 -6 0 -11 11 -11 25 0 14 -4 25 -10 25 -5 0 -10 11
-10 25 0 16 -6 25 -15 25 -9 0 -15 9 -15 25 0 14 -4 25 -10 25 -5 0 -10 7 -10
15 0 8 -7 15 -15 15 -9 0 -15 9 -15 25 0 14 -4 25 -10 25 -5 0 -10 11 -10 25
0 14 -5 25 -11 25 -17 0 -39 27 -39 49 0 12 -6 21 -15 21 -8 0 -15 7 -15 15 0
8 -4 15 -10 15 -5 0 -10 11 -10 25 0 14 -5 25 -11 25 -14 0 -39 25 -39 39 0 6
-5 11 -11 11 -17 0 -39 27 -39 49 0 12 -6 21 -15 21 -8 0 -15 5 -15 11 0 14
-25 39 -39 39 -6 0 -11 7 -11 15 0 8 -4 15 -10 15 -5 0 -10 11 -10 25 0 14 -5
25 -11 25 -14 0 -39 25 -39 39 0 6 -5 11 -11 11 -14 0 -39 25 -39 39 0 6 -5
11 -11 11 -14 0 -39 25 -39 39 0 6 -5 11 -11 11 -14 0 -39 25 -39 39 0 6 -5
11 -11 11 -14 0 -39 25 -39 39 0 6 -5 11 -11 11 -14 0 -39 25 -39 39 0 6 -5
11 -11 11 -14 0 -39 25 -39 39 0 6 -5 11 -11 11 -14 0 -39 25 -39 39 0 6 -5
11 -11 11 -14 0 -39 25 -39 39 0 6 -7 11 -15 11 -8 0 -15 5 -15 10 0 6 -11 10
-25 10 -14 0 -25 5 -25 11 0 14 -25 39 -39 39 -6 0 -11 7 -11 15 0 9 -9 15
-25 15 -14 0 -25 5 -25 10 0 6 -16 10 -35 10 -24 0 -35 5 -35 15 0 9 -9 15
-25 15 -14 0 -25 5 -25 10 0 6 -18 10 -40 10 -29 0 -40 4 -40 15 0 9 -9 15
-25 15 -16 0 -25 -6 -25 -15 0 -10 -11 -15 -35 -15 -31 0 -35 3 -35 25 0 14 5
25 10 25 6 0 10 7 10 15 0 8 5 15 11 15 11 0 39 25 39 35 0 14 -30 35 -49 35
-12 0 -21 6 -21 15 0 8 -7 15 -15 15 -8 0 -15 5 -15 10 0 6 -11 10 -25 10 -16
0 -25 6 -25 15 0 9 -9 15 -21 15 -22 0 -49 22 -49 39 0 6 -11 11 -25 11 -14 0
-25 5 -25 10 0 6 -11 10 -25 10 -16 0 -25 6 -25 15 0 9 -9 15 -25 15 -14 0
-25 5 -25 10 0 6 -11 10 -25 10 -16 0 -25 6 -25 15 0 9 -9 15 -25 15 -14 0
-25 5 -25 10 0 6 -18 10 -40 10 -29 0 -40 4 -40 15 0 9 -9 15 -25 15 -14 0
-25 5 -25 10 0 6 -11 10 -25 10 -16 0 -25 6 -25 15 0 10 -11 15 -35 15 -19 0
-35 5 -35 10 0 6 -11 10 -25 10 -16 0 -25 6 -25 15 0 11 -12 15 -50 15 -27 0
-50 5 -50 10 0 6 -18 10 -40 10 -29 0 -40 4 -40 15 0 12 -18 15 -100 15 -60 0
-100 4 -100 10 0 6 -16 10 -35 10 -31 0 -35 3 -35 25 0 20 -5 25 -25 25 -20 0
-25 -5 -25 -25 0 -19 5 -25 21 -25 22 0 49 -22 49 -39 0 -6 -4 -11 -10 -11 -5
0 -10 -11 -10 -25 0 -22 -4 -25 -40 -25 -29 0 -40 4 -40 15 0 8 -4 15 -10 15
-5 0 -10 16 -10 35 0 34 -1 35 -40 35 -29 0 -40 4 -40 15 0 11 -12 15 -50 15
-38 0 -50 -4 -50 -15 0 -12 -14 -15 -70 -15 -56 0 -70 3 -70 15 0 12 -15 15
-75 15 -60 0 -75 -3 -75 -15 0 -8 -7 -15 -15 -15 -8 0 -15 -4 -15 -10 0 -5
-22 -10 -50 -10 -27 0 -50 5 -50 10 0 6 -4 10 -10 10 -5 0 -10 -11 -10 -25 0
-20 -5 -25 -25 -25 -20 0 -25 5 -25 25 0 20 -5 25 -25 25 -16 0 -25 6 -25 15
0 9 -9 15 -25 15 -14 0 -25 5 -25 10 0 6 -11 10 -25 10 -14 0 -25 -4 -25 -10z
m-200 -435 c0 -22 -4 -25 -40 -25 -22 0 -40 5 -40 10 0 6 -11 10 -25 10 -16 0
-25 6 -25 15 0 12 14 15 65 15 63 0 65 -1 65 -25z m-250 -165 c0 -5 -7 -10
-15 -10 -8 0 -15 5 -15 10 0 6 7 10 15 10 8 0 15 -4 15 -10z m400 -50 c0 -6
-28 -10 -65 -10 -37 0 -65 4 -65 10 0 6 28 10 65 10 37 0 65 -4 65 -10z
m-1130 -50 c0 -5 -11 -10 -25 -10 -14 0 -25 5 -25 10 0 6 11 10 25 10 14 0 25
-4 25 -10z m-1370 -400 c0 -5 -7 -10 -15 -10 -8 0 -15 5 -15 10 0 6 7 10 15
10 8 0 15 -4 15 -10z m2900 -50 c0 -5 16 -10 35 -10 24 0 35 -5 35 -15 0 -8 7
-15 15 -15 9 0 15 -9 15 -25 0 -14 5 -25 10 -25 6 0 10 -32 10 -75 0 -43 -4
-75 -10 -75 -5 0 -10 -16 -10 -35 0 -24 -5 -35 -15 -35 -8 0 -15 -7 -15 -15 0
-10 -11 -15 -35 -15 -24 0 -35 5 -35 15 0 9 -9 15 -25 15 -14 0 -25 5 -25 10
0 6 -28 10 -65 10 -37 0 -65 -4 -65 -10 0 -5 -11 -10 -25 -10 -14 0 -25 -5
-25 -11 0 -14 -25 -39 -39 -39 -6 0 -11 -5 -11 -11 0 -14 -25 -39 -39 -39 -6
0 -11 -11 -11 -25 0 -14 -4 -25 -10 -25 -5 0 -10 -7 -10 -15 0 -8 -7 -15 -15
-15 -9 0 -15 -9 -15 -25 0 -14 -4 -25 -10 -25 -5 0 -10 -11 -10 -25 0 -16 -6
-25 -15 -25 -9 0 -15 -9 -15 -25 0 -14 -4 -25 -10 -25 -5 0 -10 -11 -10 -25 0
-16 -6 -25 -15 -25 -9 0 -15 -9 -15 -25 0 -14 -4 -25 -10 -25 -5 0 -10 -11
-10 -25 0 -16 -6 -25 -15 -25 -12 0 -15 -13 -15 -60 0 -33 -4 -60 -10 -60 -5
0 -10 -7 -10 -15 0 -8 -7 -15 -15 -15 -11 0 -15 -12 -15 -50 0 -29 5 -50 11
-50 14 0 39 -25 39 -39 0 -6 5 -11 11 -11 14 0 39 -25 39 -39 0 -6 5 -11 11
-11 14 0 39 -25 39 -39 0 -6 5 -11 11 -11 14 0 39 -25 39 -39 0 -6 7 -11 15
-11 9 0 15 -9 15 -21 0 -22 22 -49 39 -49 6 0 11 -18 11 -40 0 -22 5 -40 10
-40 6 0 10 -27 10 -60 0 -33 -4 -60 -10 -60 -5 0 -10 -11 -10 -25 0 -16 -6
-25 -15 -25 -8 0 -15 5 -15 10 0 6 -11 10 -25 10 -16 0 -25 6 -25 15 0 9 -9
15 -25 15 -14 0 -25 5 -25 10 0 6 -11 10 -25 10 -16 0 -25 6 -25 15 0 9 -9 15
-25 15 -14 0 -25 5 -25 10 0 6 -11 10 -25 10 -16 0 -25 6 -25 15 0 9 -9 15
-25 15 -14 0 -25 5 -25 10 0 6 -11 10 -25 10 -16 0 -25 6 -25 15 0 9 -9 15
-25 15 -14 0 -25 5 -25 10 0 6 -11 10 -25 10 -16 0 -25 6 -25 15 0 9 -9 15
-25 15 -14 0 -25 5 -25 10 0 6 -11 10 -25 10 -16 0 -25 6 -25 15 0 9 -9 15
-25 15 -14 0 -25 5 -25 10 0 6 -11 10 -25 10 -16 0 -25 6 -25 15 0 10 -11 15
-35 15 -19 0 -35 5 -35 10 0 6 -11 10 -25 10 -16 0 -25 6 -25 15 0 11 -11 15
-40 15 -22 0 -40 5 -40 10 0 6 -16 10 -35 10 -24 0 -35 5 -35 15 0 11 -12 15
-50 15 -27 0 -50 5 -50 10 0 6 -22 10 -50 10 -38 0 -50 4 -50 15 0 8 5 15 10
15 6 0 10 11 10 25 0 16 6 25 15 25 8 0 15 5 15 10 0 6 11 10 25 10 16 0 25 6
25 15 0 9 9 15 25 15 14 0 25 5 25 10 0 6 27 10 60 10 47 0 60 3 60 15 0 12
15 15 75 15 43 0 75 4 75 10 0 6 11 10 25 10 16 0 25 6 25 15 0 9 9 15 25 15
14 0 25 5 25 10 0 6 7 10 15 10 9 0 15 9 15 25 0 14 5 25 10 25 6 0 10 7 10
15 0 8 5 15 11 15 14 0 39 25 39 39 0 6 7 11 15 11 9 0 15 9 15 21 0 22 22 49
39 49 6 0 11 11 11 25 0 14 5 25 10 25 6 0 10 11 10 25 0 16 6 25 15 25 8 0
15 7 15 15 0 8 5 15 10 15 6 0 10 11 10 25 0 16 6 25 15 25 9 0 15 9 15 21 0
22 22 49 39 49 6 0 11 11 11 25 0 14 5 25 10 25 6 0 10 7 10 15 0 8 7 15 15
15 9 0 15 9 15 21 0 22 22 49 39 49 6 0 11 7 11 15 0 8 5 15 10 15 6 0 10 11
10 25 0 16 6 25 15 25 8 0 15 5 15 10 0 6 11 10 25 10 14 0 25 5 25 11 0 17
27 39 49 39 12 0 21 6 21 15 0 8 7 15 15 15 8 0 15 5 15 10 0 6 16 10 35 10
24 0 35 5 35 15 0 11 11 15 40 15 22 0 40 5 40 10 0 6 32 10 75 10 43 0 75 -4
75 -10z m-3100 -21 c0 -14 25 -39 39 -39 6 0 11 -5 11 -11 0 -14 25 -39 39
-39 6 0 11 -7 11 -15 0 -10 11 -15 35 -15 31 0 35 -3 35 -25 0 -20 -5 -25 -24
-25 -13 0 -27 -6 -30 -12 -5 -10 -7 -10 -12 0 -4 8 -28 12 -70 12 -50 0 -64 3
-64 15 0 8 -4 15 -10 15 -14 0 -12 47 3 54 10 5 10 7 0 12 -15 7 -17 54 -3 54
6 0 10 7 10 15 0 8 7 15 15 15 8 0 15 -5 15 -11z m200 -4 c0 -8 -6 -15 -14
-15 -8 0 -17 -6 -20 -12 -5 -10 -7 -10 -12 0 -3 6 -12 12 -20 12 -8 0 -14 7
-14 15 0 11 11 15 40 15 29 0 40 -4 40 -15z m5120 -100 c0 -9 9 -15 25 -15 14
0 25 -4 25 -10 0 -5 11 -10 25 -10 16 0 25 -6 25 -15 0 -8 -7 -15 -15 -15 -8
0 -15 -4 -15 -10 0 -6 -40 -10 -100 -10 -82 0 -100 -3 -100 -15 0 -9 -9 -15
-25 -15 -14 0 -25 -4 -25 -10 0 -5 -16 -10 -35 -10 -31 0 -35 -3 -35 -25 0
-16 -6 -25 -15 -25 -8 0 -15 -7 -15 -15 0 -8 -4 -15 -10 -15 -5 0 -10 7 -10
15 0 8 -7 15 -15 15 -9 0 -15 9 -15 25 0 16 6 25 15 25 8 0 15 5 15 10 0 6
-11 10 -25 10 -16 0 -25 6 -25 15 0 9 -9 15 -25 15 -19 0 -25 5 -25 21 0 22
22 49 39 49 6 0 11 7 11 15 0 13 26 15 175 15 149 0 175 -2 175 -15z m-3050
-225 c0 -5 11 -10 25 -10 14 0 25 -5 25 -11 0 -14 -25 -39 -39 -39 -6 0 -11
-7 -11 -15 0 -10 -11 -15 -35 -15 l-35 0 0 50 0 50 35 0 c19 0 35 -4 35 -10z
m800 0 c0 -5 7 -10 15 -10 11 0 15 -12 15 -50 l0 -50 -65 0 c-51 0 -65 -3 -65
-15 0 -11 -12 -15 -50 -15 -38 0 -50 4 -50 15 0 8 -4 15 -10 15 -5 0 -10 11
-10 25 0 22 4 25 35 25 19 0 35 5 35 10 0 6 11 10 25 10 20 0 25 5 25 25 0 23
3 25 50 25 28 0 50 -4 50 -10z m1820 0 c0 -5 11 -10 25 -10 20 0 25 -5 25 -25
0 -20 -5 -25 -25 -25 -16 0 -25 -6 -25 -15 0 -9 -9 -15 -25 -15 -16 0 -25 6
-25 15 0 8 -4 15 -10 15 -14 0 -12 38 3 55 14 16 57 20 57 5z m-4970 -100 c0
-5 7 -10 15 -10 11 0 15 -11 15 -40 0 -22 5 -40 10 -40 6 0 10 -11 10 -25 0
-22 -4 -25 -35 -25 -24 0 -35 5 -35 15 0 9 -9 15 -25 15 -16 0 -25 -6 -25 -15
0 -9 -9 -15 -25 -15 -16 0 -25 6 -25 15 0 11 -11 15 -36 15 -45 0 -64 19 -64
64 l0 36 85 0 c50 0 85 4 85 10 0 6 11 10 25 10 14 0 25 -4 25 -10z m5520
-115 c0 -20 -5 -25 -25 -25 -20 0 -25 5 -25 25 0 20 5 25 25 25 20 0 25 -5 25
-25z m-570 -35 c0 -5 -7 -10 -15 -10 -8 0 -15 5 -15 10 0 6 7 10 15 10 8 0 15
-4 15 -10z m-3720 -225 c0 -8 5 -15 10 -15 6 0 10 -11 10 -25 0 -16 6 -25 15
-25 9 0 15 -9 15 -25 0 -14 5 -25 10 -25 6 0 10 -4 10 -10 0 -5 -11 -10 -25
-10 -16 0 -25 -6 -25 -15 0 -8 -4 -15 -10 -15 -5 0 -10 7 -10 15 0 8 -7 15
-15 15 -10 0 -15 11 -15 35 0 19 -4 35 -10 35 -5 0 -10 7 -10 15 0 9 -9 15
-25 15 -14 0 -25 5 -25 10 0 6 5 10 10 10 6 0 10 7 10 15 0 11 11 15 40 15 29
0 40 -4 40 -15z m300 -99 c0 -8 6 -17 13 -20 10 -5 10 -7 0 -12 -7 -3 -13 -12
-13 -20 0 -8 -10 -14 -25 -14 -14 0 -25 -4 -25 -10 0 -5 -5 -10 -11 -10 -14 0
-39 25 -39 39 0 6 -7 11 -15 11 -9 0 -15 9 -15 25 0 24 2 25 65 25 49 0 65 -3
65 -14z m2440 -41 c0 -16 6 -25 15 -25 8 0 15 -4 15 -10 0 -5 -7 -10 -15 -10
-8 0 -15 -5 -15 -11 0 -6 -6 -17 -14 -25 -17 -16 -36 -19 -36 -4 0 6 -27 10
-60 10 -47 0 -60 3 -60 15 0 9 -9 15 -25 15 -14 0 -25 5 -25 10 0 6 11 10 25
10 16 0 25 6 25 15 0 12 13 15 60 15 33 0 60 4 60 10 0 6 11 10 25 10 20 0 25
-5 25 -25z m-420 -260 c0 -10 11 -15 35 -15 24 0 35 5 35 15 0 12 14 15 65 15
51 0 65 -3 65 -15 0 -8 -5 -15 -11 -15 -17 0 -39 -27 -39 -49 0 -12 -6 -21
-15 -21 -11 0 -15 -11 -15 -40 0 -36 -2 -40 -25 -40 -14 0 -25 -4 -25 -10 0
-5 -22 -10 -50 -10 -27 0 -50 5 -50 10 0 6 -11 10 -25 10 -16 0 -25 6 -25 15
0 8 -4 15 -10 15 -5 0 -10 16 -10 35 0 19 5 35 10 35 6 0 10 7 10 15 0 8 7 15
15 15 9 0 15 9 15 25 0 20 5 25 25 25 16 0 25 -6 25 -15z m-3350 -925 c0 -5 7
-10 15 -10 9 0 15 -9 15 -25 0 -16 -6 -25 -15 -25 -8 0 -15 -7 -15 -15 0 -9
-9 -15 -25 -15 -16 0 -25 6 -25 15 0 9 -9 15 -25 15 -20 0 -25 5 -25 25 0 20
5 25 25 25 14 0 25 5 25 10 0 6 11 10 25 10 14 0 25 -4 25 -10z m-1020 -185
c0 -16 -6 -25 -15 -25 -9 0 -15 9 -15 25 0 16 6 25 15 25 9 0 15 -9 15 -25z
m1000 -40 c0 -9 9 -15 21 -15 22 0 49 -22 49 -39 0 -6 11 -11 25 -11 14 0 25
-4 25 -10 0 -5 7 -10 15 -10 8 0 15 -7 15 -15 0 -9 9 -15 25 -15 20 0 25 -5
25 -25 0 -20 -5 -25 -25 -25 -14 0 -25 -4 -25 -10 0 -5 -7 -10 -15 -10 -8 0
-15 -7 -15 -15 0 -9 -9 -15 -25 -15 -14 0 -25 -4 -25 -10 0 -5 -11 -10 -25
-10 -14 0 -25 -5 -25 -11 0 -20 -29 -39 -60 -39 -31 0 -60 19 -60 39 0 6 -5
11 -11 11 -14 0 -39 25 -39 39 0 6 -5 11 -11 11 -17 0 -39 27 -39 49 0 12 5
21 10 21 6 0 10 7 10 15 0 8 5 15 11 15 14 0 39 25 39 39 0 6 5 11 11 11 14 0
39 25 39 39 0 6 18 11 40 11 29 0 40 -4 40 -15z m4270 -590 c0 -16 -6 -25 -15
-25 -9 0 -15 9 -15 25 0 16 6 25 15 25 9 0 15 -9 15 -25z m-4220 -85 c0 -6 43
-10 110 -10 l110 0 0 -25 c0 -16 6 -25 15 -25 8 0 15 -7 15 -15 0 -8 -7 -15
-15 -15 -8 0 -15 -4 -15 -10 0 -5 -16 -10 -35 -10 l-35 0 0 -50 c0 -38 -4 -50
-15 -50 -8 0 -15 -4 -15 -10 0 -6 -32 -10 -75 -10 -43 0 -75 4 -75 10 0 6 -11
10 -25 10 -14 0 -25 5 -25 10 0 6 7 10 15 10 11 0 15 12 15 50 0 38 -4 50 -15
50 -8 0 -15 5 -15 11 0 14 -25 39 -39 39 -6 0 -11 7 -11 15 0 9 9 15 25 15 14
0 25 5 25 10 0 6 18 10 40 10 22 0 40 -4 40 -10z m2870 -65 c0 -14 -4 -25 -10
-25 -5 0 -10 11 -10 25 0 14 5 25 10 25 6 0 10 -11 10 -25z m550 -46 c0 -22
22 -49 39 -49 6 0 11 11 11 25 0 14 5 25 10 25 6 0 10 -11 10 -25 0 -14 -4
-25 -10 -25 -5 0 -10 -9 -10 -21 0 -22 22 -49 39 -49 6 0 11 -11 11 -25 0 -14
5 -25 10 -25 6 0 10 -11 10 -25 0 -16 6 -25 15 -25 9 0 15 -9 15 -25 0 -14 5
-25 10 -25 6 0 10 -7 10 -15 0 -8 7 -15 15 -15 9 0 15 -9 15 -25 0 -14 5 -25
10 -25 6 0 10 -11 10 -25 0 -16 6 -25 15 -25 9 0 15 -9 15 -25 0 -20 -5 -25
-25 -25 -14 0 -25 -4 -25 -10 0 -5 -7 -10 -15 -10 -8 0 -15 -7 -15 -15 0 -9
-9 -15 -25 -15 -14 0 -25 -4 -25 -10 0 -5 -11 -10 -25 -10 -16 0 -25 -6 -25
-15 0 -8 -4 -15 -10 -15 -5 0 -10 7 -10 15 0 8 -7 15 -15 15 -9 0 -15 9 -15
25 0 20 -5 25 -25 25 -14 0 -25 5 -25 10 0 14 -47 12 -54 -2 -5 -10 -7 -10
-12 0 -7 14 -54 16 -54 2 0 -5 -11 -10 -25 -10 -16 0 -25 -6 -25 -15 0 -8 -7
-15 -15 -15 -9 0 -15 -9 -15 -21 0 -25 -31 -60 -38 -41 -2 7 -21 12 -43 12
-28 0 -39 4 -39 15 0 8 7 15 15 15 9 0 15 9 15 21 0 22 22 49 39 49 6 0 11 11
11 25 0 14 5 25 10 25 6 0 10 7 10 15 0 8 5 15 10 15 6 0 10 11 10 25 0 16 6
25 15 25 9 0 15 9 15 21 0 22 22 49 39 49 6 0 11 18 11 40 0 29 -4 40 -15 40
-8 0 -15 -7 -15 -15 0 -10 -11 -15 -35 -15 -24 0 -35 5 -35 15 0 8 -4 15 -10
15 -5 0 -10 20 -10 45 0 25 5 45 10 45 6 0 10 5 10 11 0 21 29 39 64 39 20 0
36 -4 36 -10 0 -5 16 -10 35 -10 31 0 35 3 35 25 0 16 6 25 15 25 8 0 15 5 15
10 0 6 11 10 25 10 19 0 25 -5 25 -21z m570 11 c0 -6 28 -10 65 -10 51 0 65
-3 65 -15 0 -9 9 -15 21 -15 22 0 49 -22 49 -39 0 -6 11 -11 25 -11 24 0 25
-2 25 -70 0 -40 -4 -70 -10 -70 -5 0 -10 -7 -10 -15 0 -8 -7 -15 -15 -15 -8 0
-15 -4 -15 -10 0 -6 -27 -10 -60 -10 -33 0 -60 4 -60 10 0 6 -11 10 -25 10
-16 0 -25 6 -25 15 0 8 -7 15 -15 15 -10 0 -15 11 -15 35 0 24 5 35 15 35 9 0
15 9 15 25 0 22 4 25 35 25 33 0 35 -2 35 -35 0 -24 5 -35 15 -35 8 0 15 -7
15 -15 0 -8 5 -15 10 -15 6 0 10 7 10 15 0 8 7 15 15 15 8 0 15 5 15 10 0 6
-7 10 -15 10 -9 0 -15 9 -15 21 0 36 -24 49 -89 49 -34 0 -61 -4 -61 -10 0 -5
-11 -10 -25 -10 -20 0 -25 -5 -25 -25 0 -14 -4 -25 -10 -25 -5 0 -10 -11 -10
-25 0 -16 -6 -25 -15 -25 -12 0 -15 -15 -15 -75 0 -47 4 -75 11 -75 14 0 39
-25 39 -39 0 -6 5 -11 11 -11 14 0 39 -25 39 -39 0 -6 21 -11 50 -11 38 0 50
4 50 15 0 8 7 15 15 15 10 0 15 11 15 35 0 19 5 35 10 35 6 0 10 11 10 25 0
26 24 35 34 13 5 -10 7 -10 12 0 3 7 25 12 55 12 l49 0 0 -71 c0 -75 -12 -99
-49 -99 -12 0 -21 -6 -21 -15 0 -11 -11 -15 -40 -15 -22 0 -40 -4 -40 -10 0
-6 -43 -10 -110 -10 -67 0 -110 4 -110 10 0 6 -7 10 -15 10 -8 0 -15 5 -15 11
0 14 -25 39 -39 39 -6 0 -11 5 -11 11 0 14 -25 39 -39 39 -6 0 -11 5 -11 11 0
14 -25 39 -39 39 -6 0 -11 7 -11 15 0 8 -4 15 -10 15 -6 0 -10 35 -10 85 0 50
4 85 10 85 6 0 10 11 10 25 0 14 5 25 11 25 17 0 39 27 39 49 0 12 6 21 15 21
8 0 15 7 15 15 0 9 9 15 25 15 14 0 25 5 25 10 0 6 27 10 60 10 33 0 60 -4 60
-10z m700 0 c0 -5 11 -10 25 -10 16 0 25 -6 25 -15 0 -8 7 -15 15 -15 8 0 15
-4 15 -10 0 -5 11 -10 25 -10 14 0 25 -5 25 -11 0 -14 25 -39 39 -39 7 0 11
-43 11 -125 0 -104 -2 -125 -15 -125 -10 0 -15 -11 -15 -35 0 -19 -4 -35 -10
-35 -5 0 -10 -7 -10 -15 0 -8 -7 -15 -15 -15 -9 0 -15 -9 -15 -21 0 -26 -23
-49 -49 -49 -12 0 -21 -6 -21 -15 0 -11 -11 -15 -40 -15 -22 0 -40 -4 -40 -10
0 -6 -27 -10 -60 -10 -33 0 -60 4 -60 10 0 6 -7 10 -15 10 -8 0 -15 5 -15 11
0 14 -25 39 -39 39 -6 0 -11 5 -11 11 0 14 -25 39 -39 39 -6 0 -11 7 -11 15 0
8 -4 15 -10 15 -5 0 -10 16 -10 35 0 24 -5 35 -15 35 -8 0 -15 7 -15 15 0 8 7
15 15 15 9 0 15 9 15 25 0 16 -6 25 -15 25 -8 0 -15 5 -15 10 0 6 7 10 15 10
11 0 15 12 15 50 0 28 5 50 10 50 6 0 10 11 10 25 0 14 5 25 11 25 14 0 39 25
39 39 0 6 7 11 15 11 8 0 15 5 15 10 0 6 11 10 25 10 16 0 25 6 25 15 0 9 9
15 25 15 14 0 25 5 25 10 0 6 27 10 60 10 33 0 60 -4 60 -10z m-1590 -25 c0
-8 5 -15 10 -15 6 0 10 -16 10 -35 l0 -35 -60 0 c-33 0 -60 -4 -60 -10 0 -5
-7 -10 -15 -10 -13 0 -15 -27 -15 -186 0 -147 -3 -188 -14 -200 -11 -11 -44
-14 -135 -14 l-121 0 0 100 c0 82 -3 100 -15 100 -12 0 -15 18 -15 100 l0 100
-25 0 c-14 0 -25 5 -25 10 0 6 -11 10 -25 10 -22 0 -25 4 -25 35 0 24 5 35 15
35 8 0 15 7 15 15 0 13 34 15 250 15 216 0 250 -2 250 -15z m1290 -46 c0 -14
-25 -39 -39 -39 -6 0 -11 5 -11 10 0 6 7 10 15 10 8 0 15 7 15 15 0 8 5 15 10
15 6 0 10 -5 10 -11z m-1000 -499 c0 -5 -4 -10 -10 -10 -5 0 -10 5 -10 10 0 6
5 10 10 10 6 0 10 -4 10 -10z m180 0 c0 -5 -7 -10 -15 -10 -8 0 -15 5 -15 10
0 6 7 10 15 10 8 0 15 -4 15 -10z m250 0 c0 -5 -7 -10 -15 -10 -8 0 -15 5 -15
10 0 6 7 10 15 10 8 0 15 -4 15 -10z m-1520 -50 c0 -5 16 -10 35 -10 24 0 35
-5 35 -15 0 -9 -9 -15 -25 -15 -14 0 -25 -4 -25 -10 0 -16 -139 -12 -156 4
-21 22 -17 36 11 36 14 0 25 5 25 10 0 6 23 10 50 10 28 0 50 -4 50 -10z
m-2400 -121 c0 -14 25 -39 39 -39 6 0 11 -5 11 -11 0 -17 27 -39 49 -39 12 0
21 -6 21 -15 0 -8 7 -15 15 -15 9 0 15 -9 15 -25 0 -14 -5 -25 -11 -25 -6 0
-17 -6 -25 -14 -8 -8 -14 -19 -14 -25 0 -6 -7 -11 -15 -11 -8 0 -15 -4 -15
-10 0 -5 -11 -10 -25 -10 -14 0 -25 -5 -25 -11 0 -17 -27 -39 -49 -39 -12 0
-21 5 -21 10 0 6 -7 10 -15 10 -8 0 -15 5 -15 11 0 14 -25 39 -39 39 -6 0 -11
5 -11 11 0 14 -25 39 -39 39 -6 0 -11 11 -11 25 0 16 6 25 15 25 8 0 15 5 15
11 0 14 25 39 39 39 6 0 11 7 11 15 0 9 9 15 21 15 22 0 49 22 49 39 0 6 7 11
15 11 8 0 15 -5 15 -11z m-280 -54 c0 -31 -3 -35 -25 -35 -22 0 -25 4 -25 35
0 31 3 35 25 35 22 0 25 -4 25 -35z m4250 -25 c0 -5 -7 -10 -15 -10 -8 0 -15
5 -15 10 0 6 7 10 15 10 8 0 15 -4 15 -10z m-1470 -24 c0 -8 6 -17 13 -20 10
-5 10 -7 0 -12 -7 -3 -13 -10 -13 -16 0 -13 26 -38 39 -38 6 0 11 -7 11 -15 0
-8 -7 -15 -15 -15 -9 0 -15 -9 -15 -25 0 -25 -1 -25 -85 -25 -84 0 -85 0 -85
25 0 14 5 25 10 25 6 0 10 7 10 15 0 8 5 15 11 15 17 0 39 27 39 49 0 16 6 21
25 21 16 0 25 6 25 15 0 8 7 15 15 15 8 0 15 -6 15 -14z m470 -11 c0 -14 -4
-25 -10 -25 -5 0 -10 11 -10 25 0 14 5 25 10 25 6 0 10 -11 10 -25z m1620 14
c0 -14 -25 -39 -39 -39 -6 0 -11 5 -11 10 0 6 7 10 15 10 8 0 15 7 15 15 0 8
5 15 10 15 6 0 10 -5 10 -11z m-364 -33 c11 -12 14 -67 14 -310 0 -293 0 -296
-21 -296 -22 0 -49 22 -49 39 0 6 -11 11 -25 11 -14 0 -25 5 -25 10 0 6 -7 10
-15 10 -8 0 -15 7 -15 15 0 9 -9 15 -25 15 -14 0 -25 5 -25 10 0 6 -11 10 -25
10 -16 0 -25 6 -25 15 0 9 -9 15 -25 15 -14 0 -25 5 -25 10 0 6 -11 10 -25 10
-24 0 -25 -3 -25 -60 l0 -60 -60 0 c-33 0 -60 4 -60 10 0 6 -7 10 -15 10 -9 0
-15 9 -15 25 0 16 6 25 15 25 13 0 15 30 15 211 0 169 3 213 14 225 17 16 36
19 36 4 0 -5 11 -10 25 -10 14 0 25 -5 25 -11 0 -14 25 -39 39 -39 6 0 11 -7
11 -15 0 -9 9 -15 21 -15 22 0 49 -22 49 -39 0 -6 11 -11 25 -11 14 0 25 -4
25 -10 0 -5 7 -10 15 -10 8 0 15 -5 15 -11 0 -11 25 -39 35 -39 10 0 35 28 35
39 0 6 -4 11 -10 11 -5 0 -10 11 -10 25 0 14 5 25 10 25 15 0 12 97 -2 104
-10 5 -10 7 0 12 6 3 12 12 12 20 0 8 10 14 25 14 14 0 25 5 25 10 0 15 19 12
36 -4z m-706 -21 c0 -9 9 -15 21 -15 22 0 49 -22 49 -39 0 -6 11 -11 25 -11
14 0 25 -4 25 -10 0 -5 7 -10 15 -10 9 0 15 -9 15 -25 0 -14 5 -25 10 -25 6 0
10 -37 10 -90 0 -53 -4 -90 -10 -90 -5 0 -10 -22 -10 -50 0 -29 -5 -50 -11
-50 -17 0 -39 -27 -39 -49 0 -12 -6 -21 -15 -21 -8 0 -15 -5 -15 -11 0 -17
-27 -39 -49 -39 -12 0 -21 -6 -21 -15 0 -11 -11 -15 -40 -15 -22 0 -40 -4 -40
-10 0 -5 -21 -10 -46 -10 -44 0 -74 16 -74 39 0 6 -5 11 -11 11 -11 0 -39 25
-39 35 0 10 -28 35 -39 35 -6 0 -11 5 -11 11 0 14 -25 39 -39 39 -7 0 -11 36
-11 100 0 82 3 100 15 100 11 0 15 11 15 40 0 22 5 40 10 40 6 0 10 5 10 10 0
14 -47 12 -54 -2 -5 -10 -7 -10 -12 0 -7 14 -54 16 -54 2 0 -5 -7 -10 -15 -10
-12 0 -15 -19 -15 -114 0 -82 -4 -116 -12 -120 -10 -5 -10 -7 0 -12 18 -8 16
-121 -2 -140 -11 -11 -44 -14 -135 -14 l-121 0 0 100 c0 82 -3 100 -15 100
-12 0 -15 17 -15 96 0 109 -8 124 -64 124 -35 0 -36 1 -36 40 0 29 4 40 15 40
8 0 15 5 15 10 0 6 89 10 246 10 262 0 274 -2 274 -49 0 -12 6 -21 15 -21 8 0
15 5 15 10 0 6 9 10 20 10 11 0 20 7 20 15 0 8 7 15 15 15 8 0 15 5 15 10 0 6
11 10 25 10 16 0 25 6 25 15 0 12 15 15 75 15 60 0 75 -3 75 -15z m1620 0 c0
-9 9 -15 25 -15 14 0 25 -4 25 -10 0 -5 7 -10 15 -10 8 0 15 -7 15 -15 0 -9 9
-15 21 -15 22 0 49 -22 49 -39 0 -6 7 -11 15 -11 13 0 15 -21 15 -125 0 -104
-2 -125 -15 -125 -10 0 -15 -11 -15 -35 0 -19 -4 -35 -10 -35 -5 0 -10 -7 -10
-15 0 -8 -7 -15 -15 -15 -9 0 -15 -9 -15 -25 0 -19 -5 -25 -21 -25 -22 0 -49
-22 -49 -39 0 -6 -21 -11 -50 -11 -27 0 -50 -4 -50 -10 0 -5 -22 -10 -50 -10
-27 0 -50 5 -50 10 0 6 -7 10 -15 10 -8 0 -15 5 -15 11 0 14 -25 39 -39 39 -6
0 -11 5 -11 11 0 14 -25 39 -39 39 -6 0 -11 11 -11 25 0 14 -4 25 -10 25 -5 0
-10 11 -10 25 0 16 -6 25 -15 25 -8 0 -15 7 -15 15 0 8 7 15 15 15 9 0 15 9
15 25 0 16 -6 25 -15 25 -8 0 -15 5 -15 10 0 6 7 10 15 10 11 0 15 12 15 50 0
28 5 50 10 50 6 0 10 11 10 25 0 16 6 25 15 25 8 0 15 5 15 11 0 14 25 39 39
39 6 0 11 7 11 15 0 9 9 15 21 15 22 0 49 22 49 39 0 7 28 11 75 11 60 0 75
-3 75 -15z m480 0 c0 -10 11 -15 35 -15 19 0 35 -4 35 -10 0 -5 11 -10 25 -10
23 0 25 -3 25 -50 l0 -50 -35 0 c-19 0 -35 5 -35 10 0 6 -18 10 -40 10 -36 0
-40 -2 -40 -25 0 -14 5 -25 11 -25 14 0 39 -25 39 -39 0 -6 5 -11 11 -11 14 0
39 -25 39 -39 0 -6 7 -11 15 -11 8 0 15 -4 15 -10 0 -5 11 -10 25 -10 16 0 25
-6 25 -15 0 -8 5 -15 10 -15 6 0 10 -21 10 -46 0 -44 -16 -74 -39 -74 -6 0
-11 -11 -11 -25 0 -14 -4 -25 -10 -25 -5 0 -10 -7 -10 -15 0 -8 -7 -15 -15
-15 -8 0 -15 -4 -15 -10 0 -6 -40 -10 -100 -10 -60 0 -100 4 -100 10 0 6 -16
10 -35 10 -24 0 -35 5 -35 15 0 8 -5 15 -11 15 -11 0 -39 25 -39 35 0 4 6 13
14 21 17 16 56 19 56 4 0 -16 119 -12 136 4 8 8 14 17 14 21 0 10 -28 35 -39
35 -6 0 -11 7 -11 15 0 8 -4 15 -10 15 -5 0 -10 11 -10 25 0 14 -5 25 -11 25
-14 0 -39 25 -39 39 0 6 -7 11 -15 11 -9 0 -15 9 -15 24 0 13 -6 27 -12 30
-10 5 -10 7 0 12 6 3 12 12 12 20 0 8 7 14 15 14 9 0 15 9 15 25 0 14 5 25 10
25 6 0 10 11 10 25 0 14 5 25 11 25 14 0 39 25 39 39 0 6 18 11 40 11 29 0 40
-4 40 -15z m-800 -40 c0 -14 5 -25 10 -25 6 0 10 -11 10 -25 0 -24 -2 -25 -75
-25 -73 0 -75 -1 -75 -25 0 -14 -4 -25 -10 -25 -6 0 -10 -68 -10 -185 l0 -185
-140 0 -140 0 0 200 0 200 -25 0 c-14 0 -25 5 -25 10 0 6 -11 10 -25 10 -23 0
-25 3 -25 50 l0 50 265 0 265 0 0 -25z m-5070 -120 c0 -20 -5 -25 -25 -25 -14
0 -25 5 -25 10 0 6 5 10 10 10 6 0 10 7 10 15 0 8 7 15 15 15 9 0 15 -9 15
-25z m3370 -40 c0 -8 -4 -15 -10 -15 -5 0 -10 7 -10 15 0 8 5 15 10 15 6 0 10
-7 10 -15z m-870 -60 c0 -16 -6 -25 -15 -25 -9 0 -15 9 -15 25 0 16 6 25 15
25 9 0 15 -9 15 -25z m500 10 c0 -8 -7 -15 -15 -15 -8 0 -15 7 -15 15 0 8 7
15 15 15 8 0 15 -7 15 -15z m1620 0 c0 -8 -7 -15 -15 -15 -8 0 -15 7 -15 15 0
8 7 15 15 15 8 0 15 -7 15 -15z m350 -110 c0 -16 -6 -25 -15 -25 -9 0 -15 9
-15 25 0 16 6 25 15 25 9 0 15 -9 15 -25z m770 -40 c0 -8 -4 -15 -10 -15 -5 0
-10 7 -10 15 0 8 5 15 10 15 6 0 10 -7 10 -15z m-1120 -75 c0 -5 -7 -10 -15
-10 -8 0 -15 5 -15 10 0 6 7 10 15 10 8 0 15 -4 15 -10z m-700 -25 c0 -8 -7
-15 -15 -15 -8 0 -15 7 -15 15 0 8 7 15 15 15 8 0 15 -7 15 -15z m-3950 -60
c0 -14 -4 -25 -10 -25 -5 0 -10 11 -10 25 0 14 5 25 10 25 6 0 10 -11 10 -25z
m550 -40 c0 -8 7 -15 15 -15 10 0 15 -11 15 -35 0 -24 -5 -35 -15 -35 -8 0
-15 -7 -15 -15 0 -8 -4 -15 -10 -15 -5 0 -10 11 -10 25 0 20 -5 25 -25 25 -22
0 -25 4 -25 40 0 39 1 40 35 40 24 0 35 -5 35 -15z m1800 -100 c0 -8 5 -15 11
-15 11 0 39 -25 39 -35 0 -19 -34 -35 -74 -35 -46 0 -46 0 -46 35 0 31 3 35
25 35 16 0 25 6 25 15 0 8 5 15 10 15 6 0 10 -7 10 -15z"/>
<path d="M5533 7865 c-15 -17 -17 -105 -3 -105 6 0 10 -7 10 -15 0 -8 6 -15
14 -15 8 0 17 -6 20 -12 5 -10 7 -10 12 0 3 6 12 12 20 12 8 0 14 10 14 25 0
14 5 25 10 25 15 0 12 70 -4 86 -19 18 -77 18 -93 -1z"/>
<path d="M4720 7045 c0 -8 -7 -15 -15 -15 -8 0 -15 -4 -15 -10 0 -5 -11 -10
-25 -10 -16 0 -25 -6 -25 -15 0 -9 -9 -15 -25 -15 -14 0 -25 -4 -25 -10 0 -5
-16 -10 -35 -10 -24 0 -35 -5 -35 -15 0 -9 -9 -15 -25 -15 -14 0 -25 -4 -25
-10 0 -5 16 -10 35 -10 24 0 35 -5 35 -15 0 -11 11 -15 40 -15 22 0 40 -4 40
-10 0 -5 9 -10 21 -10 22 0 49 22 49 39 0 6 7 11 15 11 9 0 15 9 15 25 0 14 5
25 10 25 6 0 10 11 10 25 0 16 6 25 15 25 9 0 15 9 15 25 0 20 -5 25 -25 25
-16 0 -25 -6 -25 -15z"/>
<path d="M5810 4700 c0 -5 7 -10 15 -10 8 0 15 -7 15 -15 0 -8 5 -15 10 -15
15 0 12 19 -4 36 -17 16 -36 19 -36 4z"/>
<path d="M5940 4515 c0 -16 -6 -25 -15 -25 -8 0 -15 -7 -15 -15 0 -11 11 -15
39 -15 22 0 41 -5 44 -12 2 -8 8 -9 13 -4 5 5 4 11 -3 13 -7 3 -13 16 -13 29
0 15 -6 24 -15 24 -8 0 -15 7 -15 15 0 8 -4 15 -10 15 -5 0 -10 -11 -10 -25z"/>
<path d="M7240 4745 c0 -11 -11 -15 -38 -15 -26 0 -42 -6 -52 -20 -8 -11 -20
-20 -27 -20 -7 0 -13 -7 -13 -15 0 -8 -4 -15 -10 -15 -5 0 -10 -11 -10 -25 0
-16 -6 -25 -15 -25 -12 0 -15 -16 -15 -85 0 -69 3 -85 15 -85 9 0 15 -9 15
-25 0 -14 5 -25 10 -25 6 0 10 -7 10 -15 0 -8 7 -15 15 -15 8 0 15 -4 15 -10
0 -5 11 -10 25 -10 16 0 25 -6 25 -15 0 -10 11 -15 35 -15 24 0 35 5 35 15 0
9 9 15 25 15 14 0 25 5 25 10 0 6 7 10 15 10 9 0 15 9 15 25 0 14 5 25 10 25
6 0 10 7 10 15 0 8 7 15 15 15 12 0 15 16 15 85 0 50 4 85 10 85 6 0 10 11 10
25 0 14 -4 25 -10 25 -5 0 -10 7 -10 15 0 8 -7 15 -15 15 -8 0 -15 5 -15 10 0
6 -11 10 -25 10 -14 0 -25 5 -25 10 0 6 -11 10 -25 10 -16 0 -25 6 -25 15 0 8
-4 15 -10 15 -5 0 -10 -7 -10 -15z"/>
<path d="M5940 3850 c0 -5 -11 -10 -25 -10 -16 0 -25 -6 -25 -15 0 -9 -9 -15
-25 -15 -20 0 -25 -5 -25 -25 0 -14 -5 -25 -11 -25 -23 0 -39 -30 -39 -74 0
-25 -4 -46 -10 -46 -5 0 -10 -18 -10 -40 0 -22 5 -40 10 -40 6 0 10 -11 10
-25 0 -14 5 -25 10 -25 6 0 10 -11 10 -25 0 -20 5 -25 25 -25 14 0 25 -4 25
-10 0 -5 7 -10 15 -10 8 0 15 -7 15 -15 0 -10 11 -15 35 -15 24 0 35 5 35 15
0 9 9 15 25 15 14 0 25 5 25 10 0 6 7 10 15 10 8 0 15 5 15 11 0 14 25 39 39
39 6 0 11 11 11 25 0 14 5 25 10 25 6 0 10 44 10 111 0 117 -8 139 -49 139
-12 0 -21 6 -21 15 0 9 -9 15 -25 15 -14 0 -25 5 -25 10 0 6 -11 10 -25 10
-14 0 -25 -4 -25 -10z m-30 -350 c0 -5 -4 -10 -10 -10 -5 0 -10 5 -10 10 0 6
5 10 10 10 6 0 10 -4 10 -10z"/>
<path d="M7560 3850 c0 -5 -11 -10 -25 -10 -16 0 -25 -6 -25 -15 0 -9 -9 -15
-25 -15 -20 0 -25 -5 -25 -25 0 -14 -4 -25 -10 -25 -5 0 -10 -11 -10 -25 0
-16 -6 -25 -15 -25 -12 0 -15 -16 -15 -85 0 -69 3 -85 15 -85 9 0 15 -9 15
-25 0 -14 5 -25 10 -25 6 0 10 -7 10 -15 0 -8 7 -15 15 -15 8 0 15 -4 15 -10
0 -5 11 -10 25 -10 16 0 25 -6 25 -15 0 -10 11 -15 35 -15 24 0 35 5 35 15 0
9 9 15 25 15 14 0 25 5 25 10 0 6 7 10 15 10 9 0 15 9 15 25 0 14 5 25 10 25
6 0 10 7 10 15 0 8 7 15 15 15 12 0 15 16 15 85 0 50 4 85 10 85 6 0 10 11 10
25 0 14 -4 25 -10 25 -5 0 -10 7 -10 15 0 8 -7 15 -15 15 -8 0 -15 5 -15 10 0
6 -11 10 -25 10 -16 0 -25 6 -25 15 0 9 -9 15 -25 15 -14 0 -25 5 -25 10 0 6
-11 10 -25 10 -14 0 -25 -4 -25 -10z m-20 -350 c0 -5 -7 -10 -15 -10 -8 0 -15
5 -15 10 0 6 7 10 15 10 8 0 15 -4 15 -10z"/>
<path d="M3820 6535 c0 -14 5 -25 10 -25 6 0 10 -7 10 -15 0 -11 11 -15 40
-15 29 0 40 4 40 15 0 8 -7 15 -15 15 -8 0 -15 5 -15 10 0 6 -11 10 -25 10
-16 0 -25 6 -25 15 0 8 -4 15 -10 15 -5 0 -10 -11 -10 -25z"/>
<path d="M2940 6360 l0 -100 165 0 165 0 0 100 0 100 -165 0 -165 0 0 -100z"/>
<path d="M3320 6360 l0 -100 75 0 75 0 0 35 c0 19 5 35 10 35 6 0 10 23 10 50
0 38 4 50 15 50 8 0 15 7 15 15 0 12 -18 15 -100 15 l-100 0 0 -100z"/>
<path d="M3840 6370 c0 -73 3 -90 15 -90 8 0 15 -4 15 -10 0 -6 43 -10 110
-10 67 0 110 4 110 10 0 6 7 10 15 10 8 0 15 5 15 11 0 14 25 39 39 39 6 0 11
6 11 14 0 8 6 17 13 20 10 5 10 7 0 12 -7 3 -13 12 -13 20 0 10 -12 14 -40 14
-22 0 -40 5 -40 10 0 6 -16 10 -35 10 -24 0 -35 5 -35 15 0 12 -17 15 -90 15
l-90 0 0 -90z"/>
<path d="M2940 4645 l0 -1585 36 0 c35 0 64 -18 64 -39 0 -6 -11 -11 -24 -11
-13 0 -27 -6 -30 -12 -5 -10 -7 -10 -12 0 -3 6 -12 12 -20 12 -12 0 -14 -56
-14 -360 0 -313 2 -360 15 -360 8 0 15 -5 15 -11 0 -17 27 -39 49 -39 12 0 21
-6 21 -15 0 -8 5 -15 11 -15 14 0 39 -25 39 -39 0 -6 11 -11 25 -11 14 0 25
-4 25 -10 0 -5 7 -10 15 -10 8 0 15 -7 15 -15 0 -9 9 -15 21 -15 22 0 49 -22
49 -39 0 -6 11 -11 25 -11 14 0 25 -4 25 -10 0 -5 11 -10 25 -10 l25 0 0 375
c0 243 -4 375 -10 375 -5 0 -10 -7 -10 -15 0 -12 -15 -15 -75 -15 -60 0 -75 3
-75 15 0 9 -9 15 -25 15 -14 0 -25 5 -25 10 0 6 -7 10 -15 10 -8 0 -15 5 -15
11 0 14 -25 39 -39 39 -6 0 -11 21 -11 50 0 38 4 50 15 50 11 0 15 11 15 40 0
22 5 40 10 40 6 0 10 16 10 35 0 24 5 35 15 35 11 0 15 11 15 40 0 22 5 40 10
40 6 0 10 23 10 50 0 38 4 50 15 50 10 0 15 11 15 35 0 19 5 35 10 35 6 0 10
32 10 75 0 60 3 75 15 75 12 0 15 14 15 65 0 37 4 65 10 65 6 0 10 27 10 60 0
47 3 60 15 60 12 0 15 15 15 75 0 43 4 75 10 75 6 0 10 32 10 75 0 60 3 75 15
75 12 0 15 14 15 65 0 37 4 65 10 65 6 0 10 27 10 60 0 47 3 60 15 60 11 0 15
11 15 40 0 29 -4 40 -15 40 -8 0 -15 -7 -15 -15 0 -12 -13 -15 -60 -15 -47 0
-60 3 -60 15 0 8 -7 15 -15 15 -8 0 -15 5 -15 10 0 6 37 10 90 10 l90 0 0 125
0 125 25 0 25 0 0 150 c0 93 4 150 10 150 7 0 10 215 10 625 l0 625 -60 0 -60
0 0 -225 c0 -193 -2 -225 -15 -225 -12 0 -15 19 -15 110 0 67 -4 110 -10 110
-6 0 -10 45 -10 115 0 96 -3 115 -15 115 -8 0 -15 5 -15 10 0 6 -43 10 -110
10 -67 0 -110 -4 -110 -10 0 -5 -7 -10 -15 -10 -8 0 -15 5 -15 10 0 6 -11 10
-25 10 l-25 0 0 -1585z m130 501 c0 -8 6 -17 13 -20 10 -5 10 -7 0 -12 -7 -3
-13 -12 -13 -20 0 -8 -10 -14 -25 -14 -22 0 -25 4 -25 40 0 36 3 40 25 40 15
0 25 -6 25 -14z m50 -1046 c0 -5 11 -10 25 -10 20 0 25 -5 25 -25 0 -16 -6
-25 -15 -25 -8 0 -15 -7 -15 -15 0 -10 -11 -15 -35 -15 -24 0 -35 5 -35 15 0
9 -9 15 -25 15 -20 0 -25 5 -25 25 0 20 5 25 25 25 14 0 25 5 25 10 0 6 11 10
25 10 14 0 25 -4 25 -10z m100 -350 c0 -5 -11 -10 -25 -10 -14 0 -25 5 -25 10
0 6 11 10 25 10 14 0 25 -4 25 -10z"/>
<path d="M3840 6085 c0 -77 -4 -125 -10 -125 -6 0 -10 -32 -10 -75 0 -60 -3
-75 -15 -75 -12 0 -15 -15 -15 -75 0 -43 -4 -75 -10 -75 -6 0 -10 -32 -10 -75
0 -60 -3 -75 -15 -75 -12 0 -15 -15 -15 -75 0 -43 -4 -75 -10 -75 -6 0 -10
-28 -10 -65 0 -51 -3 -65 -15 -65 -12 0 -15 -13 -15 -60 0 -33 -4 -60 -10 -60
-6 0 -10 -32 -10 -75 0 -60 -3 -75 -15 -75 -12 0 -15 -14 -15 -65 0 -37 -4
-65 -10 -65 -6 0 -10 -30 -10 -70 0 -56 -3 -70 -15 -70 -12 0 -15 -14 -15 -65
0 -37 -4 -65 -10 -65 -5 0 -10 -16 -10 -35 0 -33 2 -35 35 -35 l35 0 0 60 c0
47 3 60 15 60 12 0 15 15 15 75 0 43 4 75 10 75 6 0 10 27 10 60 0 47 3 60 15
60 12 0 15 14 15 65 0 37 4 65 10 65 6 0 10 27 10 60 0 47 3 60 15 60 12 0 15
14 15 65 0 37 4 65 10 65 6 0 10 32 10 75 0 60 3 75 15 75 11 0 15 12 15 50 0
28 5 50 10 50 6 0 10 27 10 60 0 47 3 60 15 60 11 0 15 11 15 40 0 22 5 40 10
40 6 0 10 23 10 50 0 38 4 50 15 50 12 0 15 15 15 71 0 69 12 99 39 99 6 0 11
11 11 25 0 14 5 25 10 25 6 0 10 18 10 40 0 29 4 40 15 40 9 0 15 9 15 25 0
14 5 25 10 25 6 0 10 11 10 25 l0 25 -100 0 -100 0 0 -125z"/>
<path d="M1470 5770 c0 -5 5 -10 10 -10 6 0 10 5 10 10 0 6 -4 10 -10 10 -5 0
-10 -4 -10 -10z"/>
<path d="M1590 4485 c0 -16 6 -25 15 -25 9 0 15 9 15 25 0 16 -6 25 -15 25 -9
0 -15 -9 -15 -25z"/>
<path d="M1590 4375 c0 -8 7 -15 15 -15 8 0 15 7 15 15 0 8 -7 15 -15 15 -8 0
-15 -7 -15 -15z"/>
<path d="M1570 4300 c0 -22 5 -40 10 -40 6 0 10 18 10 40 0 22 -4 40 -10 40
-5 0 -10 -18 -10 -40z"/>
</g>
</svg>
